<svg width="32" height="32" viewBox="0 0 32 32" fill="none" xmlns="http://www.w3.org/2000/svg">
<path d="M20.009 7.28203L25.5245 12.6975C29.0786 16.1872 29.1362 21.8908 25.6538 25.4375C22.1713 28.9843 16.4676 29.031 12.9135 25.5413L7.39804 20.1258C5.81112 18.57 4.85494 16.4828 4.71317 14.2649C4.57139 12.0471 5.254 9.85511 6.6299 8.10991L9.73535 11.1591C9.4617 11.9553 9.64739 12.8746 10.2887 13.5042L12.1272 15.3094C13.0161 16.1823 14.4425 16.1701 15.3127 15.2839C16.1828 14.3977 16.1689 12.9713 15.2799 12.0984L13.4414 10.2933C12.7992 9.66273 11.8776 9.49478 11.0865 9.78295L7.98108 6.73379C9.70082 5.3262 11.88 4.60361 14.1 4.7048C16.3201 4.80599 18.4245 5.72382 20.009 7.28203Z" fill="#FF204E"/>
</svg>
