<svg width="200" height="55" viewBox="0 0 200 55" fill="none" xmlns="http://www.w3.org/2000/svg">
<path d="M12.3525 54.1755C8.3583 54.1755 5.30099 53.0413 3.18059 50.773C1.0602 48.5047 0 45.2994 0 41.1572V13.9373C0 9.79513 1.0602 6.58988 3.18059 4.32155C5.30099 2.05322 8.3583 0.919058 12.3525 0.919058C16.3468 0.919058 19.4041 2.05322 21.5245 4.32155C23.6449 6.58988 24.7051 9.79513 24.7051 13.9373V41.1572C24.7051 45.2994 23.6449 48.5047 21.5245 50.773C19.4041 53.0413 16.3468 54.1755 12.3525 54.1755ZM12.3525 46.7788C15.1633 46.7788 16.5687 45.0775 16.5687 41.675V13.4195C16.5687 10.017 15.1633 8.31578 12.3525 8.31578C9.54177 8.31578 8.1364 10.017 8.1364 13.4195V41.675C8.1364 45.0775 9.54177 46.7788 12.3525 46.7788Z" fill="white"/>
<path d="M30.2075 1.65873H40.415L48.3295 32.651H48.4774V1.65873H55.7262V53.4358H47.3679L37.6043 15.6385H37.4563V53.4358H30.2075V1.65873Z" fill="white"/>
<path d="M64.6121 25.6981H59.2957V21.0751H75.0138V25.6981H69.6974V53.4358H64.6121V25.6981Z" fill="#FF204E"/>
<path d="M79.2835 21.0751H86.1717L91.4419 53.4358H86.3566L85.432 47.0099V47.1024H79.6533L78.7287 53.4358H74.0133L79.2835 21.0751ZM84.831 42.7106L82.5658 26.7151H82.4733L80.2543 42.7106H84.831Z" fill="#FF204E"/>
<path d="M93.909 21.0751H101.444C104.064 21.0751 105.975 21.6915 107.177 22.9243C108.379 24.1263 108.98 25.9909 108.98 28.5181V30.506C108.98 33.8653 107.87 35.9919 105.651 36.8856V36.9781C106.884 37.3479 107.747 38.103 108.24 39.2433C108.764 40.3837 109.026 41.9092 109.026 43.8201V49.5063C109.026 50.4309 109.057 51.186 109.119 51.7715C109.18 52.3263 109.334 52.8811 109.581 53.4358H104.403C104.218 52.9119 104.095 52.4188 104.033 51.9565C103.972 51.4942 103.941 50.662 103.941 49.4601V43.5427C103.941 42.0633 103.694 41.0309 103.201 40.4453C102.739 39.8597 101.922 39.5669 100.751 39.5669H98.9943V53.4358H93.909V21.0751ZM100.843 34.944C101.86 34.944 102.616 34.682 103.109 34.1581C103.633 33.6342 103.895 32.7558 103.895 31.523V29.0266C103.895 27.8555 103.679 27.0079 103.247 26.484C102.847 25.9601 102.2 25.6981 101.306 25.6981H98.9943V34.944H100.843Z" fill="#FF204E"/>
<path d="M119.766 53.8981C117.301 53.8981 115.421 53.2047 114.126 51.8178C112.832 50.4001 112.184 48.3814 112.184 45.7617V28.7492C112.184 26.1296 112.832 24.1263 114.126 22.7394C115.421 21.3217 117.301 20.6128 119.766 20.6128C122.232 20.6128 124.112 21.3217 125.406 22.7394C126.701 24.1263 127.348 26.1296 127.348 28.7492V31.523H122.54V28.4256C122.54 26.2991 121.662 25.2358 119.905 25.2358C118.148 25.2358 117.27 26.2991 117.27 28.4256V46.1315C117.27 48.2273 118.148 49.2751 119.905 49.2751C121.662 49.2751 122.54 48.2273 122.54 46.1315V39.7981H119.997V35.1751H127.348V45.7617C127.348 48.3814 126.701 50.4001 125.406 51.8178C124.112 53.2047 122.232 53.8981 119.766 53.8981Z" fill="#FF204E"/>
<path d="M130.613 21.0751H144.482V25.6981H135.698V34.2506H142.679V38.8735H135.698V48.8129H144.482V53.4358H130.613V21.0751Z" fill="#FF204E"/>
<path d="M151.383 25.6981H146.066V21.0751H161.784V25.6981H156.468V53.4358H151.383V25.6981Z" fill="#FF204E"/>
<path d="M188.917 3.48765L196.354 10.7897C201.146 15.495 201.224 23.1856 196.529 27.9678C191.833 32.7501 184.142 32.8131 179.35 28.1078L171.913 20.8057C169.774 18.708 168.484 15.8936 168.293 12.9032C168.102 9.91273 169.022 6.9571 170.878 4.60394L175.065 8.71531C174.696 9.78889 174.946 11.0284 175.811 11.8774L178.29 14.3114C179.489 15.4884 181.412 15.472 182.585 14.2771C183.758 13.0821 183.74 11.1589 182.541 9.98193L180.062 7.54791C179.196 6.6977 177.953 6.47124 176.887 6.8598L172.699 2.74843C175.018 0.850489 177.957 -0.123827 180.95 0.0126135C183.943 0.149054 186.781 1.38663 188.917 3.48765Z" fill="#FF204E"/>
</svg>
